<svg width="198" height="29" viewBox="0 0 198 29" fill="none" xmlns="http://www.w3.org/2000/svg">
<path d="M6.14475 14.3344C6.14475 14.3344 6.28283 14.3526 6.53188 14.3734C8.71412 14.5568 10.9094 14.2461 12.9571 13.464C15.0048 12.6819 16.8529 11.4481 18.3663 9.85311C23.7564 4.16893 28.0702 2.14416 32.748 3.36787C45.7451 6.76719 29.9013 20.6012 29.9013 20.6012L14.8189 23.3867L6.14475 14.3344Z" fill="#9EB0EA"/>
<path d="M1.04889 15.3799C1.04889 15.3799 -1.75389 6.08186 1.80379 7.87255C8.51395 11.2472 18.3508 27.6235 26.5269 13.9846L20.9136 23.6455L10.8083 24.7768L3.64005 19.9887L1.04889 15.3799Z" fill="#9EB0EA"/>
<path d="M40.1859 6.89073C39.5407 7.27306 38.6916 8.0156 38.049 9.43307C37.5445 10.5488 37.169 12.0807 37.1251 14.1835C37.0722 16.7077 36.1895 18.9847 34.743 20.9354C31.3659 25.4947 24.9113 28.275 18.7753 28.275C8.96818 28.275 1.12115 20.5439 0.0875266 10.939C1.08502 17.4333 6.47767 22.6649 13.2007 22.6649C15.6736 22.6658 18.0988 21.9795 20.2097 20.6814C22.3206 19.3833 24.0354 17.5237 25.1655 15.3071C25.7164 14.2343 26.1206 13.0913 26.3669 11.9091C26.3707 11.8924 26.3733 11.8755 26.3746 11.8584C26.394 11.4318 30.5904 5.892 36.5779 5.94272C37.6348 5.95182 38.7975 6.10657 40.0801 6.31594C40.1427 6.32634 40.2006 6.35591 40.2459 6.40064C40.2911 6.44537 40.3216 6.50308 40.3332 6.56591C40.3448 6.62875 40.3368 6.69364 40.3105 6.75177C40.2841 6.80989 40.2407 6.85841 40.1859 6.89073Z" fill="#9EB0EA"/>
<path d="M41.3176 6.75289C41.3176 6.75289 46.6084 0.682474 46.7942 5.5825C46.98 10.4825 41.3176 6.75289 41.3176 6.75289Z" fill="#9EB0EA"/>
<path d="M40.4827 5.78667C40.4827 5.78667 36.4747 -1.20834 41.137 0.18312C45.7993 1.57458 40.4827 5.78667 40.4827 5.78667Z" fill="#9EB0EA"/>
<path d="M60.3577 5.76353H67.7335C69.6395 5.76353 71.0249 6.19934 71.8898 7.07096C72.7547 7.92644 73.1872 9.00789 73.1872 10.3153C73.1872 11.9779 72.5065 13.1319 71.145 13.7776C72.026 14.1004 72.6827 14.625 73.1151 15.3513C73.5476 16.0777 73.7638 16.8525 73.7638 17.6757C73.7638 19.0477 73.2993 20.234 72.3703 21.2348C71.4414 22.2194 70.0079 22.7117 68.0698 22.7117H60.3577V5.76353ZM67.3491 12.4217C68.1979 12.4217 68.8306 12.2603 69.2471 11.9375C69.6795 11.6147 69.8957 11.1708 69.8957 10.6059C69.8957 9.41142 69.191 8.8142 67.7815 8.8142H63.6011V12.4217H67.3491ZM68.238 19.661C69.0228 19.661 69.5914 19.4673 69.9438 19.0799C70.2962 18.6764 70.4723 18.2083 70.4723 17.6757C70.4723 16.2068 69.5033 15.4724 67.5653 15.4724H63.6011V19.661H68.238Z" fill="#9EB0EA"/>
<path d="M79.4184 22.7117V5.76353H87.2265C89.1966 5.76353 90.6221 6.26391 91.503 7.26466C92.4 8.24926 92.8484 9.51634 92.8484 11.0659C92.8484 12.0989 92.5602 13.0835 91.9835 14.0197C91.423 14.9397 90.6221 15.5854 89.581 15.9566L92.8484 22.7117H89.1966L86.0493 16.3924H82.6618V22.7117H79.4184ZM82.6618 13.2934H87.2746C88.0434 13.2934 88.604 13.0835 88.9564 12.6639C89.3087 12.2442 89.4849 11.7115 89.4849 11.0659C89.4849 10.4364 89.3087 9.9118 88.9564 9.49213C88.62 9.07246 88.0594 8.86262 87.2746 8.86262H82.6618V13.2934Z" fill="#9EB0EA"/>
<path d="M98.6226 22.7117V5.76353H101.866V22.7117H98.6226Z" fill="#9EB0EA"/>
<path d="M113.799 23.0022C112.229 23.0022 110.868 22.5906 109.715 21.7674C108.562 20.9442 107.745 19.8063 107.264 18.3536L110.219 17.2399C110.588 18.0469 111.092 18.6926 111.733 19.1768C112.374 19.661 113.094 19.9031 113.895 19.9031C114.728 19.9031 115.385 19.7256 115.865 19.3705C116.362 19.0154 116.61 18.5069 116.61 17.8451C116.61 17.5062 116.53 17.2076 116.37 16.9493C116.21 16.6911 115.937 16.457 115.553 16.2472C115.168 16.0373 114.824 15.8759 114.52 15.7629C114.231 15.6338 113.791 15.4724 113.198 15.2787C112.526 15.0527 112.013 14.8752 111.661 14.7461C111.324 14.6169 110.876 14.399 110.315 14.0923C109.755 13.7857 109.33 13.479 109.042 13.1723C108.754 12.8495 108.489 12.4298 108.249 11.9133C108.025 11.3806 107.913 10.7915 107.913 10.1458C107.913 8.82227 108.425 7.71661 109.45 6.82885C110.476 5.92495 111.861 5.473 113.607 5.473C115.048 5.473 116.258 5.83617 117.235 6.56252C118.228 7.28887 118.884 8.23312 119.205 9.39528L116.298 10.3637C115.769 9.1693 114.808 8.57208 113.415 8.57208C112.71 8.57208 112.157 8.71735 111.757 9.00789C111.372 9.28229 111.18 9.67775 111.18 10.1943C111.18 10.5332 111.34 10.8399 111.661 11.1143C111.981 11.3726 112.309 11.5743 112.646 11.7196C112.982 11.8487 113.511 12.0343 114.231 12.2765C114.792 12.4702 115.224 12.6235 115.529 12.7365C115.833 12.8495 116.25 13.027 116.778 13.2691C117.307 13.5113 117.715 13.7614 118.003 14.0197C118.308 14.278 118.62 14.5927 118.94 14.964C119.277 15.3191 119.517 15.7468 119.661 16.2472C119.805 16.7314 119.877 17.2641 119.877 17.8451C119.877 19.4431 119.301 20.7021 118.148 21.6222C117.01 22.5422 115.561 23.0022 113.799 23.0022Z" fill="#9EB0EA"/>
<path d="M135.692 22.7117V15.545H128.652V22.7117H125.409V5.76353H128.652V12.4459H135.692V5.76353H138.935V22.7117H135.692Z" fill="#9EB0EA"/>
<path d="M145.173 22.7117V5.76353H156.657V8.86262H148.417V12.4217H153.27V15.5208H148.417V19.6126H157.162V22.7117H145.173Z" fill="#9EB0EA"/>
<path d="M173.98 22.7117L172.683 19.201H166.196L164.899 22.7117H161.415L167.854 5.76353H171.025L177.464 22.7117H173.98ZM171.626 16.223L169.968 11.8164C169.712 11.1708 169.535 10.6624 169.439 10.2911C169.343 10.6624 169.167 11.1708 168.911 11.8164L167.253 16.223H171.626Z" fill="#9EB0EA"/>
<path d="M197.925 22.7117H194.682V13.9955C194.682 13.6242 194.698 13.1804 194.73 12.6639C194.537 13.2288 194.369 13.6727 194.225 13.9955L190.141 23.0022L186.033 13.9955C185.888 13.6727 185.72 13.2288 185.528 12.6639C185.56 13.1804 185.576 13.6242 185.576 13.9955V22.7117H182.333V5.76353H185.624L189.756 15.1092C189.885 15.4159 190.029 15.8033 190.189 16.2714C190.349 15.8033 190.493 15.4159 190.621 15.1092L194.826 5.76353H197.925V22.7117Z" fill="#9EB0EA"/>
</svg>
